<?xml version="1.0" standalone="no"?><!DOCTYPE svg PUBLIC "-//W3C//DTD SVG 1.1//EN" "http://www.w3.org/Graphics/SVG/1.1/DTD/svg11.dtd"><svg t="1783716922960" class="icon" viewBox="0 0 1024 1024" version="1.1" xmlns="http://www.w3.org/2000/svg" p-id="19398" xmlns:xlink="http://www.w3.org/1999/xlink" width="200" height="200"><path d="M443.9 861.6c-24.9 0-49.3-7.7-69.9-22.5l-31.6-22.7-38.9-5.8c-36.3-5.5-67.7-26.8-86.1-58.7l-16-27.7-27.8-16.5c-33.9-20.2-55.7-55.7-58.4-95.1l-1.7-25.3-14.7-20.7c-24-33.9-28.9-77.1-12.9-115.5l9.1-21.8-3.9-23.3c-6.7-40.3 7.3-80.7 37.4-108.3l21-19.2 8.3-27.1c11.1-36.1 39-65.2 74.7-77.9 12.5-4.4 26.2 2.1 30.6 14.6 4.4 12.5-2.1 26.2-14.6 30.6-21.4 7.6-38.1 25-44.8 46.7L191.5 305l-30.6 28c-18.1 16.5-26.4 40.8-22.4 65l6.2 36.9-14.4 34.6c-9.6 23-6.7 48.9 7.7 69.3l22.5 31.7 2.6 38.8c1.6 23.6 14.7 44.9 35 57l38.5 22.9 22.3 38.5c11 19.1 29.9 31.9 51.7 35.2l50.4 7.6 41 29.4c16.9 12.1 38.1 16.3 58.3 11.6l51.8-12.1 51.8 12.1c20.2 4.7 41.4 0.5 58.3-11.6l41-29.4 50.4-7.6c21.8-3.3 40.6-16.1 51.7-35.2l22.3-38.5 38.5-22.9c20.3-12.1 33.4-33.4 35-57l2.6-38.8 22.5-31.7c14.4-20.4 17.3-46.3 7.7-69.3l-14.4-34.6 6.2-36.9c4-24.2-4.4-48.4-22.4-65l-30.6-28-12.2-39.6c-6.7-21.7-23.4-39.1-44.8-46.7-12.5-4.4-19-18.1-14.6-30.6s18.1-19 30.6-14.6c35.6 12.6 63.6 41.7 74.7 77.9l8.3 27.1 21 19.2c30.1 27.5 44.1 68 37.4 108.3l-3.9 23.3 9.1 21.8c16 38.4 11.2 81.6-12.9 115.5l-14.7 20.7-1.7 25.3c-2.6 39.4-24.5 74.9-58.4 95.1l-27.8 16.5-16 27.7c-18.4 31.8-49.8 53.2-86.1 58.7l-38.9 5.8-31.6 22.7c-28.1 20.1-63.5 27.2-97.2 19.3l-40.9-9.5-40.9 9.5c-9.1 2.1-18.2 3.2-27.3 3.2z" fill="#000000" p-id="19399"></path><path d="M554.7 661.3h-85.3c-105.9 0-192-86.1-192-192V384c0-6.7 0.3-13.4 1-20l42.4 4.4c-0.5 5.1-0.8 10.4-0.8 15.6v85.3c0 82.3 67 149.3 149.3 149.3h85.3c82.3 0 149.3-67 149.3-149.3V384c0-4.5-0.2-9-0.6-13.5l42.5-3.8c0.5 5.7 0.8 11.5 0.8 17.3v85.3c0.1 105.9-86.1 192-191.9 192z" fill="#000000" p-id="19400"></path><path d="M512.7 585.6c-11.4 0-22.1-4.4-30.2-12.5L470 560.6c-4.7-4.7-7.3-11-7.3-17.7 0-6.7 2.6-13 7.3-17.7 4.7-4.7 11-7.3 17.7-7.3h50c6.7 0 13 2.6 17.7 7.3 4.7 4.7 7.3 11 7.3 17.7 0 6.7-2.6 13-7.3 17.7l-12.5 12.5c-8.1 8.1-18.8 12.5-30.2 12.5z" fill="#000000" p-id="19401"></path><path d="M406 454m-21.3 0a21.3 21.3 0 1 0 42.6 0 21.3 21.3 0 1 0-42.6 0Z" fill="#000000" p-id="19402"></path><path d="M406 481.7c-15.3 0-27.7-12.4-27.7-27.7 0-15.3 12.4-27.7 27.7-27.7 15.3 0 27.7 12.4 27.7 27.7 0.1 15.3-12.4 27.7-27.7 27.7z m0-42.7c-8.2 0-14.9 6.7-14.9 14.9s6.7 14.9 14.9 14.9 14.9-6.7 14.9-14.9c0.1-8.2-6.6-14.9-14.9-14.9z" fill="#000000" p-id="19403"></path><path d="M619.4 454m-21.3 0a21.3 21.3 0 1 0 42.6 0 21.3 21.3 0 1 0-42.6 0Z" fill="#000000" p-id="19404"></path><path d="M619.4 481.7c-15.3 0-27.7-12.4-27.7-27.7 0-15.3 12.4-27.7 27.7-27.7 15.3 0 27.7 12.4 27.7 27.7 0 15.3-12.4 27.7-27.7 27.7z m0-42.7c-8.2 0-14.9 6.7-14.9 14.9s6.7 14.9 14.9 14.9 14.9-6.7 14.9-14.9-6.7-14.9-14.9-14.9zM235.6 416c-8.6 0-16.7-1.9-23.4-6.6-21.7-15.2-20.9-53.3-16.3-82.5 6.3-40.7 20.7-72.5 32.1-88.7l35 24.5c-9.9 14.2-19 38.9-23.8 64.6-4.5 24.3-3.4 39.8-1.7 46.2 6.6-0.6 21.6-4.9 42.8-17.4 22.5-13.3 42.7-30.3 52.6-44.5l35 24.5c-11.3 16.2-36.3 40.6-72.4 60.5-18.1 9.8-40.6 19.4-59.9 19.4zM792.8 417.4c-17.8 0-38-6.5-54.7-13.5-38-16-65.4-37.7-78.3-52.6l32.2-28c11.3 13 33.2 27.9 56.9 38.7 22.1 10.1 37.2 12.8 44.1 12.8h0.3c1-6.6 0.5-22.1-6.5-45.8-7.4-25.1-19.1-48.7-30.4-61.8l32.2-28c13 14.9 30.6 45.1 41.2 84.9 7.6 28.6 12.4 66.4-7.6 83.8-7.8 6.8-18.1 9.5-29.4 9.5z m-0.1-39.8z" fill="#000000" p-id="19405"></path><path d="M512 405.3c-38.8 0-75.4-17.8-99.5-47.5-9.1 3.2-18.7 4.9-28.5 4.9-31.2 0-59.4-17.1-74.3-43.4-3.6 0.5-7.3 0.7-11 0.7-47.1 0-85.3-38.3-85.3-85.3s38.3-85.3 85.3-85.3c3.7 0 7.4 0.2 11 0.7 14.9-26.3 43.1-43.4 74.3-43.4 9.8 0 19.4 1.7 28.5 4.9C436.6 81.8 473.2 64 512 64s75.4 17.8 99.5 47.5c9.1-3.2 18.7-4.9 28.5-4.9 31.2 0 59.4 17.1 74.3 43.4 3.6-0.5 7.3-0.7 11-0.7 47.1 0 85.3 38.3 85.3 85.3S772.4 320 725.3 320c-3.7 0-7.4-0.2-11-0.7-14.9 26.3-43.1 43.4-74.3 43.4-9.8 0-19.4-1.7-28.5-4.9-24.1 29.7-60.7 47.5-99.5 47.5z m-85.4-105.1L438 320c15.2 26.4 43.6 42.8 74 42.8s58.8-16.4 74-42.8l11.4-19.7 18.9 12.7c7 4.7 15.2 7.2 23.7 7.2 19.2 0 36.1-12.9 41.2-31.4l6.3-23 22.2 8.8c5 2 10.3 3 15.7 3 23.5 0 42.7-19.1 42.7-42.7S748.9 192 725.3 192c-5.4 0-10.7 1-15.7 3l-22.2 8.8-6.3-23c-5-18.5-22-31.4-41.2-31.4-8.5 0-16.7 2.5-23.7 7.2l-18.9 12.7-11.3-19.9c-15.2-26.4-43.6-42.8-74-42.8s-58.8 16.4-74 42.8l-11.4 19.7-18.9-12.7c-7-4.7-15.2-7.2-23.7-7.2-19.2 0-36.1 12.9-41.2 31.4l-6.3 23-22.2-8.8c-5-2-10.3-3-15.7-3-23.5 0-42.7 19.1-42.7 42.7s19.1 42.7 42.7 42.7c5.4 0 10.7-1 15.7-3l22.2-8.8 6.3 23c5 18.5 22 31.4 41.2 31.4 8.5 0 16.7-2.5 23.7-7.2l18.9-12.4z" fill="#000000" p-id="19406"></path><path d="M426.7 853.3h42.7v85.3h-42.7zM554.7 853.3h42.7v85.3h-42.7z" fill="#000000" p-id="19407"></path><path d="M448.2 935.5m-42.7 0a42.7 42.7 0 1 0 85.4 0 42.7 42.7 0 1 0-85.4 0Z" fill="#000000" p-id="19408"></path><path d="M574.4 936.6m-42.7 0a42.7 42.7 0 1 0 85.4 0 42.7 42.7 0 1 0-85.4 0Z" fill="#000000" p-id="19409"></path></svg>