<svg xmlns="http://www.w3.org/2000/svg" viewBox="0 0 100 100" width="100" height="100">
  <rect width="100" height="100" fill="#FFFFFF" />
  
  <rect x="22" y="10" width="56" height="80" rx="4" fill="#FFFFFF" stroke="#000000" stroke-width="2" />
  
  <rect x="28" y="16" width="44" height="54" rx="3" fill="#FFFFFF" stroke="#000000" stroke-width="2" stroke-linecap="round" stroke-linejoin="round" />
  
  <line x1="28" y1="52" x2="72" y2="52" stroke="#000000" stroke-width="2" stroke-dasharray="2 2" />
  
  <path d="M 42,52 A 8,8 0 0,1 58,52 Z" fill="#000000" />
  
  <rect x="32" y="32" width="10" height="4" fill="#000000" />
  <rect x="36" y="28" width="8" height="4" fill="#000000" />
  
  <rect x="44" y="64" width="16" height="6" fill="#000000" rx="1" />
  <path d="M 46,64 L 44,60 L 48,62 Z M 52,64 L 50,60 L 54,62 Z" fill="#000000" /> <path d="M 60,66 C 63,66 65,64 65,59" fill="none" stroke="#000000" stroke-width="2" stroke-linecap="round" />
  
  <text x="50" y="84" 
        font-family="'Courier New', Courier, monospace" 
        font-size="5.5" 
        font-weight="bold" 
        text-anchor="middle" 
        letter-spacing="0.2"
        fill="#000000">Idle Kindle</text>
</svg>
